<svg xmlns="http://www.w3.org/2000/svg" viewBox="0 0 723 652">
  <path fill="#667E4E" d="M610.9140625 35.15234375c1.49830644 1.21769578 2.98444084 2.45054638 4.45703125 3.69921875 5.90454981 4.82541217 12.22416581 9.13563384 18.42626953 13.56738281 1.99164925 1.42960769 3.97248149 2.87246055 5.94873047 4.32324219 7.38902461 5.40314003 15.00404918 10.24701131 22.90234375 14.86914063 2.75384858 1.6262345 5.49048375 3.27959104 8.2265625 4.93554687C687.98380296 86.89546052 705.321329 96.66524452 723 106c-7.27575247 8.90118653-28.22035201 10.83969664-39 12-32.74307641 2.25307276-63.64911919-6.84030989-93-21 .14433868-1.35432679.29056661-2.70845225.4375-4.0625l.24609375-2.28515625C592.06840205 87.42660504 592.53178087 84.21458005 593 81l-2.046875 3.10546875c-.90091681 1.36075976-1.80196546 2.72143223-2.703125 4.08203125l-1.34375 2.04101563C570.68565092 114.67868336 534.86926419 130.34896938 507 137l-2.09667969.51318359C497.74570884 139.12328321 490.6916046 139.429238 483.375 139.625l-3.62109375.1171875c-2.91782361.09337036-5.83565546.17914828-8.75390625.2578125l.87036133 3.11083984c1.0885131 3.90025836 2.16454572 7.80387814 3.23730469 11.7084961.46125093 1.67245401.92564633 3.34404477 1.39355468 5.01464843 5.31053407 18.97844254 8.07122743 36.59862322 7.6328125 56.32128907-.54546327 9.04541874-.54546327 9.04541874 2.57958985 17.12768554C488.74510909 234.78817026 490.7563068 235.85046006 493 237c17.57644878 16.7739759 27.76969034 41.47134781 31.9921875 64.96875l.5161438 2.86282349c1.81940494 10.4856221 2.93028576 21.03445455 4.01330566 31.61697387C532.81408913 368.37444287 537.1933464 399.90276734 543.5 431.375l.5440979 2.75616455C548.65347673 457.2938537 556.67167577 477.40777883 568 498.0625l1.5546875 2.83911133c2.84972486 5.20599355 2.84972486 5.20599355 5.73144531 10.39428711 1.1357322 2.0357464 2.24049487 4.08552111 3.33886719 6.14160156a882669034.2342952 882669034.2342952 0 0 1 1.8515625 3.37109375c4.56637052 10.64198858 4.07278553 24.4806617 4.95605469 35.95410156.19328049 2.4989107.39558014 4.99698361.59863281 7.49511719.65589598 8.25974898 1.19822569 16.44861153.96875 24.7421875l-5.2734375 2.63671875C579.43175726 593.21577368 579.43175726 593.21577368 578 598h-18l4-6-11-3c.58667897-6.80547605 1.86272886-13.30136409 3.37890625-19.9609375C557.1001157 566.02710565 557.1001157 566.02710565 557 563l-17-7c1.3538703-3.38467575 2.51344383-6.05936446 4.34765625-9.1015625l1.33398437-2.234375L547.0625 542.375c.91018286-1.51143971 1.81784523-3.02440088 2.72265625-4.5390625l1.21508789-2.01416016C552.14403674 533.86652802 552.14403674 533.86652802 553 531c-.77856543-1.93092488-1.5572023-3.86182104-2.33642578-5.79248047-.90118352-2.99797695-.62903626-5.47021529-.31616211-8.5493164.69039929-7.128118.18762763-12.01274115-4.27832031-17.76391602-2.14230785-2.48723127-4.33717574-4.91283925-6.59497071-7.2956543-15.50808613-16.81797748-24.15614136-37.51505675-24.93896484-60.05566406-.07852665-2.020192-.15731074-4.04037401-.23632813-6.06054688-.11931853-3.1461382-.23623533-6.29231856-.34838867-9.4387207-.11063755-3.06305215-.23111213-6.1256013-.3527832-9.18823242l-.09178162-2.80097961c-.37089397-9.04709286-.91451046-17.88681066-6.31837463-25.42948914l-2.01953125-2.8984375C502.94453088 372.93023883 500.61035269 370.437511 498 368h-1l.45402527 1.82138062c4.6567266 19.35810459 5.18129854 37.71737987 4.88929748 57.4861145-.05226771 3.92991078-.07421703 7.85999891-.09918213 11.79016113C502.19140835 446.73223166 502.10672873 454.36596733 502 462l-5 2c.70028696 4.41021628 2.20834218 8.39718201 3.84375 12.52734375.5890952 1.51339325 1.17744248 3.02707779 1.76513672 4.54101562l.93548584 2.40307618c9.76959631 25.21113683 17.47338948 50.4666338 22.63092041 77.02075195C528.6605014 573.04174177 532.64685005 582.05823409 541 591.8125l1.828125 2.19335937c2.59489384 3.08848778 5.20171317 6.08274678 8.109375 8.88085938C553 605 553 605 553 607l1.6875.69140625c2.94652064 1.66737232 4.93601611 3.83778195 7.3125 6.24609375 4.98101516 4.66052089 8.77994937 6.20907741 15.390625 7.43359375C581.10163189 622.26551308 582.8103797 623.93453159 585 627c2.83255192 4.99068671 2.58951627 10.34717677 1.375 15.8125-1.97693263 3.1451201-3.90421351 3.94325579-7.375 5.1875-4.28761905.41227106-7.76215526-.18677233-11.875-1.25-4.98336303-1.10238031-7.54653157-.01352323-11.97265625 2.2734375-4.16271931 1.88871112-7.94167321 1.76868577-12.2890625.2109375C538.91568329 647.39556782 535.86537601 645.34293868 533 642l-2.25 2.875c-2.62452573 3.35356066-5.00093774 4.89142957-9.265625 5.4609375C511.73525982 650.47521057 506.11649288 647.4048436 499 641l-1.25 1.390625c-5.49570075 5.83918205-10.52448161 9.71888332-18.75 10.109375-9.24049959-.39744084-15.80989105-6.08062776-22-12.5l-1.625 2.75c-2.69183386 4.02348313-6.0524408 6.49673756-10.6875 8-7.02678476.6536544-13.39295696.90000855-19.6875-2.75-6.34847742-6.06632287-8.15866864-12.3081436-8.4375-20.8125.18781704-7.96514973 1.98521785-15.11447529 6.625-21.6875 3.6565043-3.25022604 6.98154755-4.75741836 11.8125-5.5 9.06357436 1.11307054 15.30005714 7.99353901 21.04296875 14.55859375 1.85180936 1.66579918 1.85180936 1.66579918 4.19140625 1.421875 3.81787499-1.35351218 7.27292035-3.17457905 10.828125-5.10546875l2.42822266-1.29907227c1.80843067-.96838 3.61529848-1.93968221 5.42089843-2.91333007 3.45814752-1.86165886 6.92322004-3.71003537 10.38916016-5.55712891 2.52503975-1.34709433 5.04969678-2.69490437 7.57421875-4.04296875l1.86404419-.99493408c1.77263501-.94689322 3.54415742-1.89586837 5.31564331-2.84490967l3.10888672-1.66381836C509.81712726 590.10050288 512.41548253 588.57685804 515 587c-1.07049926-6.12325575-5.52626224-11.00262356-9-16l-1.35888672-1.96142578C495.40871989 555.74456335 485.85328045 542.72152018 475.6875 530.125 449 496.95879733 449 496.95879733 449 486h-2l-.83203125 1.77172852c-1.13131263 2.15833829-2.36712087 3.9557023-3.85546875 5.88061523l-1.60400391 2.0859375L439 497.9375c-1.17461073 1.51942955-2.34908836 3.03896201-3.5234375 4.55859375l-1.77246094 2.28857422c-1.57730542 2.05049705-3.13363964 4.11459695-4.68066406 6.18798828l-1.36328125 1.81469727c-1.21583852 1.62027112-2.42643954 3.24446857-3.63671875 4.86889648C422 520 422 520 419 521c-2.84619141-1.10131836-2.84619141-1.10131836-6.3515625-2.83984375l-1.93592834-.94967651c-1.38812076-.68247354-2.77401032-1.36949949-4.15791321-2.06048584-2.19806262-1.09670771-4.40226996-2.18003247-6.60855103-3.26010132-6.93513999-3.40015494-13.85069229-6.8387949-20.75543213-10.30021668-2.92061298-1.46060682-5.84709211-2.90920585-8.77453613-4.35606384-2.04750784-1.01822895-4.08539736-2.05408676-6.12359619-3.09078979C355.96378324 489.98374498 348.26111327 487.4806674 339 486l1.1105957 2.17358398C346.68107305 501.07164316 353.14738112 513.97785105 358.9375 527.25l1.37719727 3.15625c1.84061394 4.24751835 3.65908318 8.50045656 5.39233398 12.79296875C372.22974852 559.14341113 381.53825647 573.90928611 390.625 588.5c9.57561619 15.42970468 9.57561619 15.42970468 8.375 22.5-2.0974368 5.82347159-5.44813071 8.36859215-11 11-2.81495732 1.07020514-5.68249216 1.93516401-8.5625 2.8125-10.84381614 3.46319773-21.41393757 7.57970215-32 11.75l-2.48806763.97305298c-8.75798376 3.42995441-17.34094409 6.94653602-25.67965698 11.31576538-5.98200309 3.02735555-11.97603783 3.15603031-18.34790039 1.20727539-4.70131963-1.88407156-8.87885466-3.8462907-12.859375-6.99609375L285 641c-1.67723155.6396222-3.34260013 1.31061774-5 2-2.98046875.0546875-2.98046875.0546875-6.1875-.125-5.6871654-.11580201-9.53960505.90095067-14.671875 3.21875-2.95070618 1.24920408-4.98446978 1.46734426-8.140625.90625-1.2071865-.65231378-2.39415013-1.34293688-3.5625-2.0625-3.15312413-2.17949542-3.15312413-2.17949542-6-1.8125-1.73231407.62185633-3.45973151 1.25742801-5.18359375 1.90234375-5.80273329 1.73455053-12.67574203 2.35381479-18.4296875.1328125-3.15647929-2.23740895-3.82598857-4.16980983-4.51171875-7.91015625.60877535-7.18354917 4.63416129-12.58193055 9.875-17.25 4.47282491-3.69457048 6.89898257-4.29082873 12.8125-4l3.5625 1.1875c4.36806785 1.0324524 5.56531015-.13286865 9.4375-2.1875 3.75078247-.46790445 7.16687143-.22216762 10.8125.75 3.52874586.27676438 4.96643429-.34734858 8.1875-1.6875 6.64810992-2.66841378 12.93562754-2.43376629 20-2.0625l.8671875-2.33984375c2.26909086-5.3284513 6.69212873-8.63386423 11.8515625-10.9921875C309.82601458 596.00128683 319.68649028 600.55512052 328 604l2.73046875 1.7265625c8.0443424 3.13316084 18.31542213-.30880799 26.51953125-1.9765625l3.140625-.58203125C366.78187681 601.87178375 370.99611973 600.21230599 376 596c-1.32019693-3.66312152-2.9280608-6.5311358-5.2578125-9.64453125l-1.89453125-2.54882812L366.875 581.1875l-1.99609375-2.67773437C363.25748432 576.33612028 361.63107746 574.16640381 360 572c-2.32095287 2.23634514-3.78647804 4.28271855-5.3125 7.125-1.3046875 2.15234375-1.3046875 2.15234375-2.6875 3.875-2.9375.6875-2.9375.6875-6 1-2.22507924 1.49014418-4.02786511 3.16873189-6 5l-2.125-.875c-2.92952503-1.14633588-5.88421653-2.15125654-8.875-3.125l-3 3c-4.07189109-1.5422405-6.30362722-4.44253342-8.9375-7.75l-1.26367188-1.5546875c-.84153174-1.03533118-1.67927916-2.07374998-2.51318359-3.11523437-.8891337-1.09275985-1.79571224-2.17147108-2.71582031-3.23828126C307 568.20235999 307 568.20235999 307 566c-3.04516202 2.83332467-5.16868601 5.65500311-7.25 9.25l-1.578125 2.703125L297 580c-3.92225641-3.36193407-6.44101701-7.09216758-8-12-.16254684-3.76975765.37447119-7.35068534.95703125-11.0703125l.42790222-3.15109253c.45249907-3.30496647.9381795-6.60390715 1.42756653-9.90359497.47305692-3.30730582.93893532-6.61538592 1.39543152-9.92501831.28510124-2.05388873.58063504-4.10636384.88796997-6.15704346.96152487-6.75195239.96198372-11.97282893-1.95137024-18.26950073l-1.12866211-2.50268555L289.8125 504.375c-3.19924013-7.24213079-5.99932845-14.4694716-8.25-22.0625l-.7097168-2.38720703c-6.8371747-23.90108692-2.43506364-44.30301785 3.6940918-67.96044922l.7121582-2.7565918c.43804771-1.66785995.88882588-3.33245215 1.35498047-4.99267578 1.91078438-7.12060282.81089065-11.67982329-2.36401367-18.34057617-11.00108992-24.49576023-11.11751139-51.27792869-9.4375-77.5625l.12884521-2.07226563C275.6881818 294.39552317 277.02285724 282.70468514 279 271l-2.01953125.140625C266.90325042 271.53525733 256.75907806 268.72562792 249 262c-9.05136851-10.38084517-11.32119138-21.41717798-10.90966797-34.97631836.23016066-2.95844966.5462553-5.89114761.90966797-8.83618164l.38598633-3.29492187c1.38660826-10.80142791 3.72814418-21.3760854 6.27612305-31.95434571C248.44996998 171.0920635 249.31281567 163.14742574 244 152l-2.48413086-.12011719c-48.79387597-2.47785412-48.79387597-2.47785412-62.72290039-17.55566406-2.71936419-3.52510172-4.84154043-7.31999671-6.9921875-11.2109375C168.499563 117.405969 164.67618327 111.67618327 160 107c-.34148786-4.96376996.35603963-9.30553732 1.5-14.125 1.00053223-4.23373362 1.5-7.47215053 1.5-11.875l-11 17c-3.16320925-.79080231-5.43665416-1.61060378-8.3125-3-25.87799596-11.57589447-68.4749823 1.27673043-93.73046875 10.421875C38.50858496 108.80385115 25.87578996 107.18352981 14.25 105.625l-2.88671875-.38183594C7.15759618 104.63825742 3.75262553 104.07776725 0 102l3.69921875-.69921875C33.58343891 95.46525681 56.571763 80.91582158 77.625 59.3125c12.25179517-12.4012073 27.42605807-22.67981236 42.54394531-31.27148437 1.75069671-.99532944 3.49040025-2.00992085 5.22949219-3.02539063 25.36979529-14.25269398 55.9029536-25.65675664 85.38671875-20.33203125C213.66631773 5.59842895 216.28793851 6.66908094 219 8l2.59375 1.1796875C230.47973094 13.59654273 238.22350747 19.90300404 246 26l1.67626953 1.3125C253.4792646 31.88600038 258.90647888 36.64977623 264 42c2.85316778 2.92632593 5.76411752 5.66735424 8.875 8.3125 3.46440119 2.99641454 6.43473393 6.20774191 9.390625 9.69921875 2.28689961 2.62169347 4.74966391 5.03275866 7.25390625 7.4453125C291 69 291 69 293 72l2.69140625-.69921875c31.86397728-8.13479945 63.16531874-15.32949411 95.2109375-4.32421875C393.77278178 68.10457072 393.77278178 68.10457072 396 68l.7421875-1.67578125C401.08781845 58.29424851 408.45357425 50.35803939 415 44h2l.81347656-1.81982422c1.20056821-2.20598232 2.2903717-3.42712483 4.17089844-5.06298828l1.8137207-1.58374023L425.75 33.875l2.02026367-1.73071289C434.23622296 26.67755003 440.97410732 21.7183691 448 17l2.5-1.703125C461.79690547 8.04548297 474.83875676 3.35994706 488 1l2.74902344-.5168457c42.67948077-6.34294777 86.13713956 9.53598218 120.16503906 34.66918945ZM164 78l1 2Zm88 69-1 2h17l-2 4c-.48066753 3.76522898-.28759824 5.50223381 1.625 8.8125C270.5319778 164.48997956 272.06440609 165 276 165c2.87872577-1.3739373 4.74989437-2.74989437 7-5 .31537716-4.33643601.44897847-6.32653229-2-10l16-1c-6.68100069-6.68100069-13.65347727-5.24047612-22.69946289-5.25537109C266.67252175 143.81249483 259.16792189 144.09011737 252 147Zm114 0-1 2 16 1-2 4c.14850327 3.56407856.58802626 5.45560613 2.75 8.3125 2.58848423 1.94136317 4.0134162 2.60855893 7.25 2.6875 3.58583469-1.62216331 6.22355734-3.44711467 8-7-.04649703-4.3457684-.04649703-4.3457684-2-8l15-1v-2c-6.71416714-3.03583155-12.42876174-3.47241023-19.75-3.375l-3.21508789.02197266C379.87276475 143.77346378 372.63676725 143.99206806 366 147Zm-92 43c-.99956903 4.52008763-1.99641529 9.04076373-2.99072266 13.56201172-.33876631 1.53857721-.67828128 3.07698977-1.01855468 4.61523437-.48845325 2.20872007-.97422723 4.41801469-1.45947266 6.62744141l-.46398926 2.08981323C267.2719396 220.41445175 267.2719396 220.41445175 267 224l-2.375-2.4375c-2.34482856-2.54940417-2.34482856-2.54940417-4.625-3.5625 1.68855506 7.50468917 7.42119605 13.65875885 13.75390625 17.84765625C307.97552147 253.40483276 358.71354151 248.37736974 394 237.17578125 418.55477445 229.16121919 418.55477445 229.16121919 437 213c-3.56669804.60231399-6.57808629 1.56157501-9.86328125 3.06640625l-2.68554687 1.22070312L421.6875 218.5625l-2.82226562 1.28710937C416.5746328 220.89506343 414.28636341 221.94531756 412 223l-.2265625-2.23828125C410.16596443 208.35896088 404.33996592 199.17595296 396 190h-1l-.30371094 1.8449707C389.62510991 222.234673 389.62510991 222.234673 382 228c-4.14447247 2.01260354-8.281155 2.58044202-12.8125 3.0625l-1.98242188.23632813c-13.39642812 1.50787702-26.83643949 1.91002164-40.30566406 1.94140624-2.52929641.00978452-5.05780375.04099379-7.58691406.07226563-24.23589522.16419103-24.23589522.16419103-31.07641602-5.66967773-1.95647972-2.31235867-3.10106779-3.92177551-4.11499023-6.72485352l-.84741211-2.3034668L282.4375 216.1875l-.89672852-2.51098633C278.83271287 205.90946074 276.78193813 198.02425556 275 190h-1Zm40 142c-.83822065 2.95002994-1.15581886 5.64888608-1.24609375 8.7109375l-.09521484 2.75219727L312.5625 346.375c-.43718598 10.94838609-1.43236041 21.35632393-4.1875 32-2.3683612 9.7605189-1.95639566 19.7540303-.375 29.625 3.48678721-1.43716025 5.12946498-3.12949655 7.3125-6.17578125l1.8203125-2.50976562L319 396.6875c1.2283374-1.70502482 2.45748185-3.40946855 3.6875-5.11328125l1.7331543-2.43945312C326 387 326 387 328.45703125 384.32421875c2.15276293-3.24276948 1.64361033-5.38496213 1.23046875-9.19921875-.24978271-6.42684151-.24978271-6.42684151 2.30078125-9.59375C334.25685146 363.80953575 336.48317417 362.32832474 339 361c-.97866338-1.14626322-1.95794587-2.29199788-2.9375-3.4375l-1.65234375-1.93359375C333.63204305 354.73008851 332.84063472 353.84063472 332 353l.46484375-1.8984375C333.08445644 347.85499683 333.10203802 346.15833119 332 343c-4.45866317-4.5026678-10.34935618-8.16410246-16-11h-2Z"/>
  <path fill="#6E8358" d="M372 559c2.45647318 2.25465767 4.05012526 4.55845486 5.69921875 7.44921875l1.47460937 2.56835937L380.6875 571.6875l1.54882812 2.70507812C383.49518858 576.59264265 384.74955596 578.79514447 386 581c-.97272675 1.35335895-1.9739266 2.68662604-3 4h-1l-1 3-3 2 1 1v2l-3 1-11-15 2-1 1-2 1 4 2-3h-2l-1-3 3-1c1.39712274-1.95597184 2.73779907-3.95436401 4-6h-2c-.82638376-2.89234315-1-4.88742431-1-8Z"/>
  <path fill="#657853" d="m22 98-1 5c1.74978157.16894443 3.49983612.33506309 5.25.5l2.953125.28125C31.46302153 103.95800168 33.73320193 104 36 104v2h6v1c-9.39895897.36357005-18.42906424-.1129345-27.75-1.375l-2.88525391-.38208008C7.15836624 104.63861566 3.75311355 104.07803746 0 102c3.10311638-.67161995 6.20765168-1.33643675 9.3125-2l2.66992188-.578125 2.56835937-.546875 2.36450195-.5078125C19 98 19 98 22 98Z"/>
  <path fill="#859375" d="M314 231c31.11401495-.20638953 31.11401495-.20638953 46 1v1c-12.18512697.94942091-24.28339481 1.12259654-36.5 1.0625-1.80598832-.00503196-3.61197803-.00959183-5.41796875-.01367188C313.72131916 234.03797283 309.36067551 234.02080475 305 234v-1l9-1v-1Z"/>
  <path fill="#70815F" d="m410 147 2 4c-6.75 2.125-6.75 2.125-9 1l-1 2-1-2-3 12-1-2-1.75 1.5625C393 165 393 165 390.75 164.6875L389 164l2.375-1.3125c2.84198375-1.57970247 2.84198375-1.57970247 4.625-4.6875-.40595214-4.65815681-.40595214-4.65815681-2-9h16v-2Z"/>
  <path fill="#71845E" d="m81 56 2 1v3l-2.875 1.125c-3.33703501 1.59633533-3.33703501 1.59633533-4.4375 4.8125L75 69l-.625 2.375L74 73l-2.125.3125c-3.00883367.59673259-3.00883367.59673259-6 2.3125C63 77 63 77 60 76l1.28173828-1.18994141C63.23058323 72.9995428 65.17779846 71.18728308 67.125 69.375l2.015625-1.87109375C73.17605445 63.74541804 77.12474285 59.92354696 81 56Z"/>
  <path fill="#829172" d="m313 330 3 1-2 1-.06005859 2.16455078C312.92192829 369.07508896 312.92192829 369.07508896 309 376c-1.53506694-5.97652729-.47696714-11.49898552.375-17.5 1.08261824-8.03519012 2.00020005-15.98605816 2.4140625-24.0859375C312 332 312 332 313 330Z"/>
  <path fill="#798B67" d="M495 364c3.48260836 3.48260836 3.39237375 8.64442936 4.1875 13.375l.57617188 3.1953125.52929687 3.078125.48510742 2.81787109C500.996012 388.95446929 500.76986068 390.64379113 500 393l-2-6-3 1c-1.17946184-3.68581825-1-7.15670201-1-11-.31421071-2.00309329-.6451046-4.00371336-1-6 0-4 0-4 2-7Z"/>
  <path fill="#7E8C6D" d="M372 62v1c-2.49927769.33970765-4.99919595.67188032-7.5 1l-2.109375.2890625c-6.18195672.80136476-12.32044117 1.17642069-18.515625.2109375-3.35490426-.43289087-6.50044732-.58436382-9.875-.5l-1 2-2-1-1 2v-2l-4-1c15.61876113-2.37215061 30.22649748-3.77017263 46-2Z"/>
  <path fill="#9AA98D" d="M479 173c8.45752017 16.91504035 5.28982094 39.62089351 5 58h-1v-35h-2l-2-14h-1l1-9Z"/>
  <path fill="#839074" d="m279.3125 141.75 3.05273438-.0625c6.27931621-.03272608 10.9065843.71189199 16.63476562 3.3125l-2 4-1.75-1.4375c-4.14514227-2.87857102-8.02258709-2.68191848-12.984375-2.66015625l-3.92578125.00976563c-1.36328192.00835464-2.72656317.01681958-4.08984375.02539062-1.37890465.00501832-2.75781104.00958065-4.13671875.01367188C266.74214341 144.96295907 263.37109372 144.97941365 260 145c5.85726211-3.90484141 12.49585808-3.21550719 19.3125-3.25Z"/>
  <path fill="#75875F" d="M479 4v3l-2 1-2 3c-3.125.1875-3.125.1875-6 0V9l-1.625 1.5c-2.96858445 1.87489544-4.92812427 1.73501425-8.375 1.5v2l-4-1c2.2058424-1.13011652 4.41445027-2.25415788 6.625-3.375l1.87109375-.9609375C468.62531421 6.07245637 473.14694101 4 479 4Z"/>
  <path fill="#72835F" d="M526 471h2v2h2l1-2 .375 2.4375L532 476l2 1v2h2l1-2c1.5625 1.625 1.5625 1.625 3 4-.3125 3.25-.3125 3.25-1 6h-3c-1.68730565-2.07508993-3.16031447-4.08948534-4.625-6.3125l-1.234375-1.80273438C528.38308547 476.28046449 526.99801484 473.99404452 526 471Z"/>
  <path fill="#778865" d="M497 366c4.19360449.67097672 7.40334352 2.8558394 11 5l-1 4 5 1 1 5-3 2-1.35546875-2.01171875C505.38141864 376.22232787 502.20244993 371.95524699 498 368l-1-2Z"/>
  <path fill="#808F70" d="M497.2890625 135.7734375C501.90036379 136.15882003 506.42187478 135.56573791 511 135c-8.11241847 4.38913865-17.11950715 4.27394581-26.125 4.125l-3.1875-.02734375c-2.56274878-.02329772-5.12499512-.05600513-7.6875-.09765625l-1-2 1.94140625.0703125c4.15706814.08673466 7.5480873.08466267 11.55859375-1.1328125 3.9885572-1.06836354 6.75499622-.6978005 10.7890625-.1640625Z"/>
  <path fill="#72845F" d="m349 628 2.5625.4375c3.47343149.5683797 6.95195662 1.07452393 10.4375 1.5625-3.35690365 2.23793576-6.8339284 3.65050338-10.5625 5.125l-2.07617188.83984375C344.2533867 638 344.2533867 638 342 638v-3l5-1 2-6Z"/>
  <path fill="#7C8C6C" d="M307 377h2l-.49609375 3.25c-.69735569 5.57884555-.61207302 11.13649965-.56640625 16.75l.01367188 3.21484375C307.96286157 402.80995598 307.97924724 405.40494709 308 408c-1.51953125-1.796875-1.51953125-1.796875-3-4 .3125-3.25.3125-3.25 1-6h-2c-1.48454188-5.1284174-.44067205-8.64978782 1.2109375-13.53515625C306.00262385 381.99180372 306.53586229 379.55275739 307 377Z"/>
  <path fill="#70825E" d="M300 646c5.39905525-.67488191 10.74554538.83695866 16 2l1-2 3 3c-6.46796349 2.72335305-12.91392525 2.85133096-19.625 1L298 649l2-3Z"/>
  <path fill="#8B9A7A" d="M248 28c5.19895961 3.65033334 9.75278845 7.5716193 14.140625 12.16796875 1.83384326 1.89973347 1.83384326 1.89973347 4.09375 3.4453125L268 45v2h-2l-1-2-2.4375-.375C260 44 260 44 258.75 42.0625L258 40l-1-2-2 1-2-4h-2v-2l-3-1v-4Z"/>
  <path fill="#768767" d="M255 149h13c-.875 9.625-.875 9.625-2 13-3.44216672-2.6598561-3.99504674-5.90288286-5-10h-6v-3Z"/>
  <path fill="#849271" d="m238 639 9 1v2c5.39460953 2.27141454 10.26157749 2.20413361 16 2-3.9217744 2.61451626-7.30332902 3.22700576-12 3-2.54905963-1.07728115-4.6474801-2.50705468-7-4-2.79473589-.3384885-2.79473589-.3384885-5 0l-1-4Z"/>
  <path fill="#7F8F6C" d="M534 584c4.54109672 4.26587874 8.24735246 9.03612328 12 14l-2 2-3-2v-2l-1.75-.625c-3.15045599-1.92527866-4.51039731-4.15351354-6.25-7.375.25-2.375.25-2.375 1-4Z"/>
  <path fill="#7E8D6F" d="M550 504h2c1.72206188 2.99126319 2.24179923 5.10685713 2.1953125 8.546875l-.01953125 2.55859375L554.125 517.75l-.02734375 2.69140625C554.07414577 522.62788058 554.04128499 524.81380094 554 527l-2 1c-2.54748246-4.84422847-2.22816428-9.49160376-2.125-14.8125l.02734375-2.67773438c.02345988-2.17003921.0593276-4.33993809.09765625-6.50976562Z"/>
  <path fill="#7C8D6B" d="M455 495h4v5l2 1 2 7 2 1v5c-3.3013391-3.03781758-5.53995888-6.20157224-7.8125-10.0625l-1.89453125-3.16015625C454 498 454 498 455 495Z"/>
  <path fill="#929F84" d="M32 104h4v2h6v1c-11.17661864.270766-21.92803142-.46527168-33-2v-1c15.34961862-1.29912137 15.34961862-1.29912137 23 0Z"/>
  <path fill="#839174" d="M534 382h1c.67159025 4.24923723 1.33642061 8.49950501 2 12.75l.578125 3.65625.546875 3.515625.5078125 3.23730469C539 408 539 408 539 412l-3-1c-.77251547-4.73165728-1-9.21396205-1-14l-1-2c-.07092842-2.2072923-.08415025-4.41667452-.0625-6.625l.02734375-3.6015625L534 382Z"/>
  <path fill="#808F70" d="m429 506 2 1c-1.56367357 3.52238047-3.69495889 6.27123994-6.125 9.25l-2.1953125 2.703125L421 521l-6-2c3.22791555-2.1519437 4.28400809-2.20086443 8-2l1-6h2l.9375-1.9375C428 507 428 507 429 506Z"/>
  <path fill="#94A389" d="M208 148c3.14581423-.02888514 6.29159469-.04675923 9.4375-.0625l2.72070312-.02539062 2.58789063-.00976563 2.39624023-.01586914C227 148 227 148 228 149c2.69235776.23678716 5.36498156.42198025 8.0625.5625l2.29882812.13085938c1.87932626.10637695 3.75897432.20703996 5.63867188.30664062v1c-12.20545439.22510059-23.92421981-.11105114-36-2v-1Z"/>
  <path fill="#7C8C6A" d="m58 77 2 1v3c-1.875 1.0625-1.875 1.0625-4 2l-2-1-.625 1.75C51.50249112 86.81410544 49.03041481 88.15539968 46 90l-4-2 3.24609375-2.15234375c1.3971757-.92832479 2.79430892-1.85671351 4.19140625-2.78515625l2.14257812-1.41992188 2.04101563-1.35742187 1.88842773-1.25366211C56.98019886 78.0794855 56.98019886 78.0794855 58 77Z"/>
  <path fill="#7F8D70" d="M546 544h1c.26252625 4.33168317-.70756464 7.8803623-2 12l3-1 3 5c-1.4589426-.47730838-2.91713496-.95691042-4.375-1.4375l-2.4609375-.80859375C542 557 542 557 540 556c1.56641751-4.30764815 3.68336156-8.06171464 6-12Z"/>
  <path fill="#849171" d="m419 40 1 4-1.9375.625c-2.41175077 1.27038209-2.41175077 1.27038209-2.8125 4.5L415 52l-4 1v2l-6 1 1.171875-1.35546875L407.75 52.8125l1.65625-1.921875c1.32585658-1.57282986 2.59287076-3.19503266 3.84375-4.828125L415 44h2l2-4Z"/>
  <path fill="#859275" d="M288 398c2.067714 3.33303152 2.10526716 5.20908609 1.25 9l-.546875 2.5625c-.67531341 2.34108649-1.6033254 4.27366664-2.703125 6.4375-.38290462 1.99110401-.72604615 3.99100513-1 6h-2c.60503854-5.6555181 1.62185703-11.00213991 3.0625-16.5l.56445312-2.203125C287.08026455 401.53012276 287.5395002 399.76489225 288 398Z"/>
  <path fill="#6C7A59" d="M280 149h17l-2 1v2l-10 1-1 5h-1l-.9375-3.375c-.88576483-3.4195155-.88576483-3.4195155-2.0625-5.625Z"/>
  <path fill="#788665" d="M446 484h3v2h-2l-.7109375 1.609375c-1.67609162 3.1083881-3.77358176 5.84462203-5.9140625 8.640625l-1.2734375 1.6796875C438.07061281 499.28866663 437.03570089 500.64463835 436 502c-1.25541557-3.76624671-.37061958-5.37188934 1-9l5-1v-3h2v-3h2v-2Z"/>
  <path fill="#89977A" d="M280 431c2.34161268 3.51241901 1.94246947 4.71521133 1.15942383 8.70141602L280.6875 441.9375C279.31679293 448.9514133 278.3992525 455.85475691 278 463h-1c-.36822237-11.14213613.34557079-21.14528053 3-32Z"/>
  <path fill="#859474" d="m236 616 2 2c-3.57644848 1.2380014-6.33694766.74926071-10 0l-1 4-5 1-1 3h-3c5.27193671-6.61256667 8.92357225-10.85626677 18-10Z"/>
  <path fill="#829171" d="m295 520 2 1c.38932033 1.98985949.71887936 3.99199544 1 6l1 3-1.42578125 1.20703125c-1.89182428 2.15470805-2.23482664 3.68388757-2.76171875 6.48046875l-.48046875 2.44921875L294 542h-1c-.29883729-7.47093223.84074493-14.63044989 2-22Z"/>
  <path fill="#96A487" d="m288 241 1.88671875.3671875C300.1882359 243.23496606 310.57812814 244.08903818 321 245v1l-16 1v-1l-2.625.0625c-3.23403648-.05988956-6.20299897-.45830933-9.375-1.0625v-1l-5-1v-2Z"/>
  <path fill="#8F9C80" d="M368 243c-1.81296463 2.4528345-2.91454938 2.98181902-5.9375 3.625-5.00481494.62163159-9.98181197.23591583-15-.0625l-2.93945312-.15820312C341.74829212 246.27561558 339.37406771 246.14070204 337 246v-1c4.04134567-.3373021 8.08312237-.66913834 12.125-1l3.4609375-.2890625 3.359375-.2734375 3.07861328-.25390625C362.0241239 242.9985118 364.99492147 242.96865629 368 243Z"/>
  <path fill="#7F906E" d="M263 213v3l1 3h2v-3l3-1-2 9c-3.32507672-1.66253836-4.5582027-2.5582027-7-5h-2c1.13304992-3.39914975 2.12518475-4.05254451 5-6Z"/>
  <path fill="#829271" d="M583 540h1c.67453101 7.68483539 1.1567564 15.28410183 1 23l-4 1 2-24Z"/>
  <path fill="#798969" d="M500 246c3.84762566 3.4201117 6.60634022 7.46774256 9 12v2c-1.875-.3125-1.875-.3125-4-1l-2-3-2 1-1-11Z"/>
  <path fill="#859376" d="M524 308h2c2.29612756 15.74487472 2.29612756 15.74487472 2 23l-3 1 .03515625-3.46484375c.00937663-1.49088379.01847696-2.98176934.02734375-4.47265625l.02539062-2.28710938C525.09652441 319.85005687 525.05224333 317.92464419 525 316l-1-1c-.04092937-2.33297433-.04241723-4.66705225 0-7Z"/>
  <path fill="#758A64" d="m313 564 2 1c.04254356 1.99954746.04080783 4.00041636 0 6l-1 1 2 2-2 2-7-8 2-1 1-2h2l1-1Z"/>
  <path fill="#6A7A58" d="M300.3203125 229.94140625c2.89421934 1.14334321 4.78067185 1.23507143 7.8671875 1.12109375 5.34333931-.10889958 10.51181217.29359866 15.8125.9375v1c-4.24994263.05805933-8.49978324.09361654-12.75.125l-3.65625.05078125-3.515625.01953125-3.23730469.03173828C298.02020895 233.00161519 296.39212537 232.45848994 294 231c2.55192342-1.70128228 3.39209442-2.24664183 6.3203125-1.05859375Z"/>
  <path fill="#7A8E6C" d="M276 354h4c.22185844 2.26955186.42705515 4.54073755.625 6.8125l.3515625 3.83203125C281 368 281 368 279 371c-.50546036-2.08201528-1.00416835-4.16567067-1.5-6.25l-.84375-3.515625C276 358 276 358 276 354Z"/>
  <path fill="#7C8F6C" d="m246 182 3 1v5l-2 1 1 1 1 3h-2l-2 6h-2c.51482919-5.852795 1.45357192-11.3297637 3-17Z"/>
  <path fill="#74855F" d="M264 142c-1.47563225 2.9512645-3.50079352 3.06923915-6.5625 4.125l-3.06640625 1.0703125L252 148l-3-4c5.62870885-2.93161919 8.77166905-3.2019586 15-2Z"/>
  <path fill="#89987A" d="M515 433h1l2 12h1l1 10-2 1c-2.85739572-7.61972191-3.16729501-14.96983941-3-23Z"/>
  <path fill="#829170" d="M317 398c.6875 1.75.6875 1.75 1 4-1.25 1.9375-1.25 1.9375-3 4-1.01656081 1.65661761-2.02065076 3.32111559-3 5l-4-1c0-2 0-2 2.25-4.3125L313 403c1.35555293-1.64864545 2.69631653-3.31003995 4-5Z"/>
  <path fill="#7D8B6C" d="M217 627c.5534764 2.07553648 1 3.84365964 1 6 .32033957 2.00212229.65259077 4.00239695 1 6h-3v3l-2-1c-.29341888-5.67276511-.00559652-8.99067246 3-14Z"/>
  <path fill="#7D8F6E" d="M171 121h5v3l3 1c0 2.15634036-.4465236 3.92446352-1 6l5 1-4 2c-.96125903-1.41468311-1.91888325-2.8318364-2.875-4.25l-1.6171875-2.390625C173.18177985 125.28444308 172.05071825 123.22385028 171 121Z"/>
  <path fill="#778965" d="M455 14v4c-2.8741331 2.8741331-6.15764502 3.86475876-10 5l-1-3c1.45449401-1.0055761 2.91372443-2.00430435 4.375-3l2.4609375-1.6875C453 14 453 14 455 14Z"/>
  <path fill="#7D8D6B" d="M503 558c1.77706209 2.66559313 2.87548273 5.0280615 4 8l-3 2-6-9 5-1Z"/>
  <path fill="#859574" d="m328 383 1 2c-.93446535 2.03144641-1.93224776 4.03533587-3 6h-2l-.1875 2.375L323 396c-2.5625 1.3125-2.5625 1.3125-5 2 1.62184501-3.58513106 3.79256239-6.58992323 6.125-9.75l2.1953125-2.984375L328 383Z"/>
  <path fill="#97A38B" d="M348 61c8.07029553-.11547323 15.97667603.09958689 24 1v1c-5.72040011.8320582-11.22240116 1.12036664-17 1v-2h-7v-1Z"/>
  <path fill="#7F906C" d="M606 33c4.43458973 1.3937282 6.87378374 3.60582235 10 7l-2 1v-2l-4 1v3h-2l-2-10Z"/>
  <path fill="#78846A" d="M370 149h12l-2 5c-.16757757 3.20870233-.16757757 3.20870233 0 6l-2-1c-.37366113-1.99285937-.70740515-3.99363529-1-6l-1-1v-2l-1.8125 1C372 152 372 152 369 152l1-3Z"/>
  <path fill="#839375" d="m552 113 6 1c-4.23594655 3.82601624-8.78407302 5.86362904-14 8l1-5 5 1 2-5Z"/>
  <path fill="#7D8E6F" d="M584 90h2c-1.49271834 4.6138567-3.73360028 7.49459542-7 11l-3 1v-5l1.875-.25c2.30937567-.56258459 2.30937567-.56258459 3.375-2.8125L582 92h2v-2Z"/>
  <path fill="#7C8D6A" d="M112 34c-.56943014 3.30269479-1.40929363 4.87191977-4 7-2.26171875.73046875-2.26171875.73046875-4.6875 1.1875l-2.44921875.48046875L99 43c8.5-9 8.5-9 13-9Z"/>
  <path fill="#8D987F" d="M569 620c6.04486575.2686607 10.21855286.93576993 15 5l1 3-4 2-.9375-2.875c-2.32492495-3.52261356-2.83753367-3.66337198-6.75-4.5-1.43367128-.23322882-2.8706019-.44967486-4.3125-.625v-2Z"/>
  <path fill="#7E8E6D" d="M79 96v1c-1.41538717.33872513-2.83237963.67074624-4.25 1l-2.390625.5625C70 99 70 99 66 99v-2l-2-1c5.61036424-1.62077189 9.46245077-2.55579195 15 0Z"/>
  <path fill="#839173" d="M164 9v2l-1.64453125.5859375L160.1875 12.375l-2.14453125.7734375C155.75226641 14.0265769 155.75226641 14.0265769 153 16h-3l-1 2-3-3c2.62353518-1.00399524 5.24867795-2.00334445 7.875-3l2.26171875-.8671875C161.7734375 9 161.7734375 9 164 9Z"/>
  <path fill="#808D70" d="M516 0c5.78591511-.10477512 11.29309366.00749455 17 1-3.59462331 2.25998595-6.56595675 2.20868087-10.75 2.125l-3.546875-.0546875L516 3V0Z"/>
  <path fill="#7C8D6B" d="M525 560c2.39073445 3.82517513 2.55966552 7.59665524 3 12h-4c-.02687279-1.81242052-.04633715-3.62495233-.0625-5.4375l-.03515625-3.05859375C524 561 524 561 525 560Z"/>
  <path fill="#869778" d="M466 513c4.6875 3.515625 4.6875 3.515625 6 5v4l2 2-1 3c-1.36656457-1.76128344-2.71794085-3.53436088-4.0625-5.3125l-2.28515625-2.98828125L465 516l1-3Z"/>
  <path fill="#829173" d="m549.5625 646.25 2.37890625.265625C554 647 554 647 556 649c-2.64440639.8814688-4.28060752 1.16174818-7 1.1875l-2.0625.04296875C545 650 545 650 542 648c3.29098284-2.19398856 3.84832581-2.21503664 7.5625-1.75Z"/>
  <path fill="#828F72" d="M528 334h1l1 17-4-1 2-16Z"/>
  <path fill="#869475" d="M284 221c4.68441815 1.47928994 4.68441815 1.47928994 6.25 4.0625L291 227c1.05270463 1.15811388 1.05270463 1.15811388 3 2v2c-3.49167166-.29097264-4.76200675-.75539583-7.25-3.3125-1.54239724-2.36868147-2.34162913-3.93099664-2.75-6.6875Z"/>
  <path fill="#849174" d="M281 477h3l.5859375 6.15234375L285 485l2 1-1 7c-1.73546076-2.60319113-2.65175233-4.52267237-3.625-7.4375l-.7890625-2.30859375C281 481 281 481 281 477Z"/>
  <path fill="#87957A" d="m279 271 1 3h2l-.9375 1.875c-1.25878308 3.70230316-1.48878057 7.12914169-1.71875 11.015625L279 289l-2 1c-.24794402-6.5705166.67611771-12.56971459 2-19Z"/>
  <path fill="#8E9C81" d="m390 239-1 2c-1.65614657.38218767-3.32457024.71395102-5 1l-2 1c-2.2072923.07092842-4.41667452.08415025-6.625.0625l-3.6015625-.02734375L369 243v-1c3.12264249-.69852097 6.24840124-1.3819257 9.375-2.0625l2.6953125-.60351562 2.578125-.55664063 2.38037109-.52368164C388 238 388 238 390 239Z"/>
  <path fill="#849974" d="M438.6875 208.3125 441 209v3h-2l-1 3-5-1c0-3 0-3 1.1875-4.75 1.8125-1.25 1.8125-1.25 4.5-.9375Z"/>
  <path fill="#8B9A79" d="m394 189 2 1-3 17h-1c-.05382106-2.62527189-.09358313-5.24944713-.125-7.875l-.05078125-2.26171875C391.8066041 194.90805539 391.89679811 192.95257979 392 191l2-2Z"/>
  <path fill="#859377" d="m192 4-1 2c-5.81751117 1.3764647-12.06431476 1.09421723-18 1 6.0468867-3.23376984 12.29825993-3.11757439 19-3Z"/>
  <path fill="#80916E" d="m553 533 2 2c-.24441046 2.52557477-.82360659 3.7852602-2.4375 5.75C551 542 551 542 549 542v2l-2-1 6-10Z"/>
  <path fill="#7C8C6C" d="m469 139 2 1c.66796875 2.43359375.66796875 2.43359375 1.1875 5.4375l.54296875 2.99609375C473 151 473 151 472 153l-2-1c-.5625-1.875-.5625-1.875-1-4l-1-3c.27571139-2.00875442.60235737-4.01178687 1-6Z"/>
  <path fill="#879675" d="M160 100c1.5625 1.8125 1.5625 1.8125 3 4l-1 3 1.875.75c2.47568687 1.45628639 3.07625002 2.62812506 4.125 5.25-3 0-3 0-5.6875-2.5625-2.70667226-3.39549604-2.74377405-6.12475946-2.3125-10.4375Z"/>
  <path fill="#7D8D70" d="M35 94c-.71875 1.9453125-.71875 1.9453125-2 4-2.09375.6796875-2.09375.6796875-4.5.875l-2.40625.2421875C24 99 24 99 22 97c1.59915881-.69906942 3.20455045-1.38389468 4.8125-2.0625l2.70703125-1.16015625C32 93 32 93 35 94Z"/>
  <path fill="#8B9A7B" d="M622 45c4.93054827 2.71683272 9.46284362 5.66657898 14 9-2.80335585 1.40167793-4.0349356.96536981-7 0-2.8125-2.4375-2.8125-2.4375-5-5v-2h-2v-2Z"/>
  <path fill="#7B8B69" d="m569 101 6 2c-2.80804268 2.96404505-5.18315774 5.44499019-9 7l-2-4h5v-5Z"/>
  <path fill="#798D6A" d="M678 82c3.99500618 1.3697164 6.80009492 3.25722422 10 6l-3 2-1-3h-6l-1-2 1-3Z"/>
  <path fill="#7B8B6D" d="m160 80 3 1-7 11-2-4 1.875-2.3125c2.18097052-2.68375809 2.18097052-2.68375809 4.125-5.6875Z"/>
  <path fill="#859377" d="m316 646 4 3c-5.39460953 2.27141454-10.26157749 2.20413361-16 2v-1c4.17737474-1.59138085 7.53160785-2.21278058 12-2v-2Z"/>
  <path fill="#7D906B" d="m513 581 2.3125 1c2.67819135 1.17436686 2.67819135 1.17436686 5.6875 1h1v5h-7l-.4375-2.375c-.44048925-2.58921018-.44048925-2.58921018-1.5625-4.625Z"/>
  <path fill="#88987A" d="M517 276c1.86610926 2.79916389 2.68785383 4.81938269 3.625 8l.7890625 2.625C522 289 522 289 522 292l-3-1-.375-3.75c-.38223549-3.18716948-1.14598595-5.39761576-2.625-8.25l1-3Z"/>
  <path fill="#859273" d="m317 68-1 2c-3.0625.625-3.0625.625-6 1v1l-8-1c4.57080864-2.55965284 9.85902209-5.05639116 15-3Z"/>
  <path fill="#7F916F" d="M473 612c-1.375 2-1.375 2-3 4h-2l-1 2-4-2c3.12160101-3.43376112 5.35991888-5.54669371 10-4Z"/>
  <path fill="#7C8C69" d="m97 43 2 1c-.61277612 2.96175123-1.25372522 4.38058783-3 7l-4-1v-3c2.5-2.1875 2.5-2.1875 5-4Z"/>
  <path fill="#7A896A" d="m582 639 4 1c-.1875 2.375-.1875 2.375-1 5-2.5625 1.3125-2.5625 1.3125-5 2l2-8Z"/>
  <path fill="#849272" d="m337.625 637.9375 2.4765625.02734375L342 638c-2.85584773 1.90389849-4.9311762 2.69462177-8.1875 3.625l-2.73046875.7890625L329 643v-2h2v-2c2.40545638-1.20272819 3.94996953-1.10071472 6.625-1.0625Z"/>
  <path fill="#8C9779" d="M301 572c-1.1858237 3.37503669-2.27573689 5.64722731-5 8-1.5625-1.8125-1.5625-1.8125-3-4l1-3 1 2 1.875-1.5C299 572 299 572 301 572Z"/>
  <path fill="#849573" d="M366 547c2.52394612 3.12488567 4.39701907 6.31314387 6 10l-1 2-3-1c-.94921875-2.28515625-.94921875-2.28515625-1.6875-5.0625l-.76171875-2.78515625L365 548l1-1Z"/>
  <path fill="#808F6F" d="M521 540h1c.33951619 1.56116819.67132544 3.12401338 1 4.6875l.5625 2.63671875c.42722047 2.61291089.51366201 5.03391163.4375 7.67578125h-3l.0625-3.1875c.05718402-3.65764947.05718402-3.65764947-.625-6.5625C520 543 520 543 521 540Z"/>
  <path fill="#7F8E6E" d="M351 512c2.22825644 2.22825644 2.69239369 3.65761628 3.625 6.625l.7890625 2.4765625L356 523h-4c-1.125-1.75-1.125-1.75-2-4 .875-2.25.875-2.25 2-4l-2-1 1-2Z"/>
  <path fill="#7F8D6D" d="m539 490 1.859375.9609375C542.90994021 491.95628485 544.77922017 492.52411861 547 493l1 6h-3c-1.60546875-1.96875-1.60546875-1.96875-3.1875-4.5l-1.60546875-2.53125L539 490Z"/>
  <path fill="#889877" d="M364 492h2v2l2.3125-.6875C371 493 371 493 372.75 494.25 374 496 374 496 375 499c-4.23429756-1.31061591-8.07407404-2.94356259-12-5l1-2Z"/>
  <path fill="#778A64" d="m334 352 2 1h2c.73080266 1.97746603 1.39421747 3.98072489 2 6l-1 2-6-5 1-4Z"/>
  <path fill="#8A987B" d="M242 199c2 2 2 2 2.046875 4.0234375L243.75 205.375l-.265625 2.3359375C242.98335114 210.0786793 242.17347456 211.89351698 241 214c-1.20220203-3.53094302-.79532349-6.12898982-.0625-9.75l.58984375-2.984375L242 199Z"/>
  <path fill="#8A9979" d="m401 194 2 1v2l1.875.625c2.97153645 1.92275888 3.25524659 4.04094527 4.125 7.375l-2 2c-1.19713017-1.78524649-2.38247279-3.5784028-3.5625-5.375l-2.00390625-3.0234375L400 196l1-2Z"/>
  <path fill="#94A187" d="m405 143 1 2-22-1v-1c2.37456165-.1963696 4.74920019-.38231294 7.125-.5625l2.015625-.16992188C397.2606427 141.96463565 400.98374518 141.98067697 405 143Z"/>
  <path fill="#8C9C7D" d="M221 10c5.26308032 1.41204594 8.7562988 3.68991307 13 7v1h-5l-.6875-1.9375c-1.16500896-2.33443661-1.16500896-2.33443661-3.9375-2.8125L222 13l-1-3Z"/>
  <path fill="#7D8E6C" d="M460 641h5v2l3 1 2 3c-1.6875.75-1.6875.75-4 1-3.2769294-2.13381449-4.75006004-3.25018012-6-7Z"/>
  <path fill="#889576" d="M554 607c1.14926266.95421808 2.29430541 1.91352045 3.4375 2.875l1.93359375 1.6171875C561 613 561 613 562 615h-2l-1 2-1.375-1.875c-1.59608919-2.18419833-1.59608919-2.18419833-3.625-4.125v-4Z"/>
  <path fill="#788864" d="M539 592c3.82946843 1.45255699 5.12050295 3.42895561 7 7l-2 1-3-2v-2l-3-1 1-3Z"/>
  <path fill="#939F86" d="M291 551h1c.05380578 2.79192205.09357669 5.5828141.125 8.375l.05078125 2.40625c.01757348 2.07367015-.07242957 4.14758241-.17578125 6.21875l-2 2c-1.45839897-3.95705456-.67906093-7.69831388-.0625-11.75l.30273438-2.11328125c.24642435-1.71323601.50217517-3.425126.75976562-5.13671875Z"/>
  <path fill="#889778" d="M554 559h3c3 6.75 3 6.75 3 9h-2l-1 2v-7l-5-2 2-2Zm6 4h2l-1 3-1-3Z"/>
  <path fill="#859472" d="M530 352h1l1 16c-2.92509086-3.90012114-3.47535095-5.38308839-4-10h1l1-6Z"/>
  <path fill="#788869" d="M281 161c1.125 3.75 1.125 3.75 0 6-2.32156597.40729228-4.6568787.74438677-7 1 1.45255699-3.82946843 3.42895561-5.12050295 7-7Z"/>
  <path fill="#818F6F" d="M566 11c1.46067199.45082469 2.91848032.91093537 4.375 1.375l2.4609375.7734375C575 14 575 14 577 16c-2.95547533.84442152-4.7385388 1.0653653-7.75.3125C567 15 567 15 566.359375 12.91796875L566 11Z"/>
  <path fill="#7C8E68" d="M497 639h7c1.0625 1.8125 1.0625 1.8125 2 4l-1 3-6-5-2 1v-3Z"/>
  <path fill="#7D8B6C" d="m257 615 2 2h-3v2h-4v-2h-6c4.06849409-2.71232939 6.16476784-2.30699887 11-2Z"/>
  <path fill="#8A997C" d="M316 600c4.72065967 1.54269924 9.41664092 3.07794619 14 5v1c-5.27323808.68041782-9.39388711-1.75213663-14-4v-2Z"/>
  <path fill="#859476" d="m402 510 7 2v2l3 1v2c-4.03520597-1.58962659-8.01811282-3.28232318-12-5l2-2Z"/>
  <path fill="#889777" d="M526 471h2v2h2l1-2c1.42258812 3.82320557 2.24042276 6.91281305 2 11-2.95749791-3.46741134-5.07848152-6.86873527-7-11Z"/>
  <path fill="#8E9A80" d="M15 101v2l-7-1v2l-8-1v-1c1.74784829-.36463732 3.49840502-.7163078 5.25-1.0625l2.953125-.59765625C10.868119 100.01602465 12.48871723 100.14496801 15 101Z"/>
  <path fill="#829373" d="M273 51c2.93200474 2.85276137 5.64315404 5.65079784 8 9l-5-1-1-3-2-1v-4Z"/>
  <path fill="#839373" d="M208 5c9.59453303 1.74259681 9.59453303 1.74259681 13 5-1.41750563-.11509661-2.83401169-.24253658-4.25-.375l-2.390625-.2109375C211.914123 8.98492887 210.15163097 8.21399362 208 7V5Z"/>
  <path fill="#859576" d="M585 629c2.67927341 4.01891012 2.15601248 6.24161923 2 11l-2-4-2 2-1-6h2l1-3Z"/>
  <path fill="#7F8E6D" d="m330 606 10 2-1 3-10-2 1-3Z"/>
  <path fill="#8D9B82" d="m308.6875 598.4375 3.01171875.30859375L314 599c-3.4766338 2.14336161-6.21229195 2.21277626-10.25 2.125l-3.265625-.0546875L298 601c3.40755358-3.40755358 6.15471075-3.04244239 10.6875-2.5625Z"/>
  <path fill="#7E8E6F" d="M326 581h2v2l3 1-5 4c-3.875-1.75-3.875-1.75-5-4l3-1 3 2-1-4Z"/>
  <path fill="#889577" d="M334 584c1.69141656.08963062 3.37959602.24577676 5.0625.4375l2.78515625.30859375L344 585l-4 4c-2.91517292-1.07401108-4.77810176-1.77810176-7-4l1-1Z"/>
  <path fill="#7C8E6D" d="m316 575 4 2v3l3 1-2 1-1 2c-4.00390625-4.39453125-4.00390625-4.39453125-5-6l1-3Z"/>
  <path fill="#839470" d="m361 567 .875 1.875c1.06220042 2.25825765 1.06220042 2.25825765 3.125 4.125-.375 2.125-.375 2.125-1 4-4.875-4.625-4.875-4.625-6-8h3v-2Z"/>
  <path fill="#879677" d="M372 559c2.61885488 2.36944013 4.41866551 4.83733102 6 8l-1 3c-2.34191563-2.1290142-3.83554954-4.04408729-5-7v-4Z"/>
  <path fill="#8D9B7E" d="M580 523c3.2605096 3.2605096 3.05467405 6.89083745 3.0625 11.3125L583 538h-1v-5h-2v-10Z"/>
  <path fill="#8D997B" d="M249 164h1c.08074203 2.62561109.1403623 5.24875676.1875 7.875l.07617188 2.26171875C250.29296875 176.3046875 250.29296875 176.3046875 250 180l-3 2 2-18Z"/>
  <path fill="#849372" d="M194 142c2.4375.375 2.4375.375 5 1h3v2l2 1c-3.30435084 1.12377697-5.0506862.89554742-8.25-.4375l-2.140625-.87109375L192 144l2-2Z"/>
  <path fill="#829071" d="M627 110c4.51617599-.07654536 8.59085217-.10228696 13 1v3c-1.60568666-.28317926-3.20952047-.57687791-4.8125-.875l-2.70703125-.4921875C630 112 630 112 627 110Z"/>
  <path fill="#859274" d="M668 76c3.99500618 1.3697164 6.80009492 3.25722422 10 6l-3 1-2-2-3 1-2-6Z"/>
  <path fill="#859574" d="M259 39c3.43752007 1.5277867 6.18953688 3.50181056 9 6v2h-2l-1-2c-2.52733235-.65555119-2.52733235-.65555119-5-1l-1-5Z"/>
  <path fill="#889579" d="m424 642 1.3125 1.9375c1.59989177 2.32996003 1.59989177 2.32996003 4.6875 3.0625l1 3c-4.95696581-1.23924145-7.11658466-2.78577758-10-7l3-1Z"/>
  <path fill="#859478" d="m285 638 2.3125 1.4375c2.65160548 1.66356097 2.65160548 1.66356097 5.6875 2.5625.6875 2.0625.6875 2.0625 1 4-4.43458973-1.3937282-6.87378374-3.60582235-10-7l1-1Z"/>
  <path fill="#637A48" d="M250.1875 637.9375 252 639l-1 4h-5l-1-5c3-1 3-1 5.1875-.0625Z"/>
  <path fill="#8C9A7B" d="M354 606c-2.41698499 1.94918144-4.18746401 3.00815254-7.3359375 2.9765625C344.42635527 608.71537901 342.21672195 608.40084514 340 608v-1c1.58086048-.36504603 3.16483907-.71660506 4.75-1.0625l2.671875-.59765625c2.56491528-.33810247 4.14904139-.1514301 6.578125.66015625Z"/>
  <path fill="#6A7D53" d="m566 593 2 1 1-1 3 2v2h-9l1-3 2-1Z"/>
  <path fill="#87927B" d="M554 580c1.64350079 3.28700157 2.41321669 5.47930015 3 9l3 1-7-1 1-9Z"/>
  <path fill="#7A8A69" d="M288 398c1.53508028 2.43338652 2.03088304 3.67124507 1.7578125 6.578125L289.125 407.25l-.6171875 2.703125L288 412h-2c.14133499-1.77119803.28823208-3.54195287.4375-5.3125l.24609375-2.98828125C287 401 287 401 288 398Z"/>
  <path fill="#8E9D7F" d="m397 157 2 1-1 6-1-2-1.75 1.5625C393 165 393 165 390.75 164.6875L389 164l2.3125-1.25c2.6241642-1.70875809 3.99071976-3.16017753 5.6875-5.75Z"/>
  <path fill="#808F70" d="m376 143 2 2-12 2 1-3c3.24221555-1.08073852 5.60402937-1.21676408 9-1Z"/>
  <path fill="#8F9D83" d="m714 102 9 4-3 3h-3l-1-5h-2v-2Z"/>
  <path fill="#7F8E6F" d="m692 90 10 5c-3.32320026 1.10773342-4.69164744.93312508-8 0l-2-2v-3Z"/>
  <path fill="#808E6E" d="m434 27 2 1c0 2 0 2-2.5 4.625L431 35l-4-2 7-6Z"/>
  <path fill="#869675" d="m377 595 3 4c-3.13498292 1.85776765-5.37471432 2.20140476-9 2l6-6Z"/>
  <path fill="#869879" d="m392 504 1 2c1.99571323.67939174 3.99594773 1.34561559 6 2l2 2c-3 1-3 1-5.04296875.22265625L393.8125 509.0625l-2.16796875-1.15234375L390 507l2-3Z"/>
  <path fill="#8B9779" d="M479 173c1.67110042 2.96178773 2.32682752 5.37071192 2.625 8.75l.2265625 2.421875L482 186c-2.0625-1.4375-2.0625-1.4375-4-4-.05823431-3.07583023.40777093-5.98735648 1-9Z"/>
  <path fill="#879678" d="m58 77 2 1v3c-3.26545761 1.88391785-6.28111761 2.49287967-10 3 2.5162178-2.60608273 5.05134359-4.89381685 8-7Z"/>
  <path fill="#839574" d="m120 28 3 1c-1.30303294 2.60606588-2.31680981 2.91222019-5 4-1.99110401.38290462-3.99100513.72604615-6 1 2.36944013-2.61885488 4.83733102-4.41866551 8-6Z"/>
  <path fill="#7F8E71" d="m467 8-2 4h-6v2l-4-1c1.62249941-.83819158 3.24808497-1.6704116 4.875-2.5l2.7421875-1.40625C465 8 465 8 467 8Z"/>
  <path fill="#869473" d="m324 642 5 1c-5.14285714 4.42857143-5.14285714 4.42857143-9 5v-3l3-1 1-2Z"/>
  <path fill="#8D9A7D" d="m236 616 2 2c-3.9813783 1.3271261-7.85045227 1.06915913-12 1 2.69954729-3.81112559 5.61545349-3.39859514 10-3Z"/>
  <path fill="#8E9D7D" d="m289 609 2 3-2 2c-2.59269983-.01747888-5.0525154-.13768592-7.625-.375l-2.140625-.171875c-1.74558861-.14153421-3.49011173-.29609887-5.234375-.453125v-1h14l1-3Z"/>
  <path fill="#7F8F6C" d="m485 603 2 1-2 5-7-1c2.297221-1.74271938 4.59866729-3.39911152 7-5Z"/>
  <path fill="#71835F" d="m231 148 15 1 1 3-2 2-1-4-13-1v-1Z"/>
  <path fill="#6C7C58" d="M388 142c-3.90028225 2.60018816-7.47434569 2.15085514-12 2v-2c4.08443115-1.53166168 7.79455657-.63081652 12 0Z"/>
  <path fill="#819173" d="m525 126 7 1c-6 4-6 4-10 4l-1-3 4-1v-1Z"/>
  <path fill="#7D8F6C" d="m642 59 7 4v3l-5-1-2-6Z"/>
  <path fill="#889878" d="m81 56 2 1v3c-5.625 3-5.625 3-9 3l7-7Z"/>
  <path fill="#778766" d="M537 641c1.37562854 1.28965176 2.70766393 2.62689293 4 4v2c-2.88575819-.39803561-3.82189513-.79009069-5.75-3.0625L534 642l3-1Z"/>
  <path fill="#8C9A7E" d="M395 597c3.31481316 3.31481316 3.97213772 6.15020054 4.125 10.8125L399 611h-1l-.9375-3.4375c-.69174531-3.35025099-.69174531-3.35025099-2.0625-4.5625-.04080783-1.99958364-.04254356-4.00045254 0-6Z"/>
  <path fill="#6F845B" d="m575 590 2 4 2-1v4h-5c-.625-2.375-.625-2.375-1-5l2-2Z"/>
  <path fill="#899679" d="M516 522c2.55803184 3.83704776 4.34505724 7.75712791 3.625 12.4375L519 536c-3.53286034-4.56327794-3.32374517-8.49633208-3-14Z"/>
  <path fill="#869777" d="M446 484h3v2h-2l-.8125 1.8125c-1.17243467 2.15974808-2.38119282 3.54540256-4.1875 5.1875v-4h2v-3h2v-2Z"/>
  <path fill="#829370" d="M322 336h9l-2 5c-3.09162264-1.38589981-4.49183541-2.49183541-7-5Z"/>
  <path fill="#72825C" d="M391 237h3v2l2 1v2l-7-1 2-4Z"/>
  <path fill="#849377" d="M476 161c2.1991413 4.39828259 2.51855059 7.18550592 3 12l-3-1v-11Z"/>
  <path fill="#7F8F6C" d="m248 152 3 1-2 9c-2.63636364-5.27272727-2.63636364-5.27272727-3-8l2-2Z"/>
  <path fill="#748362" d="m618 42 4 2v3h2v2h2v2c-3.31529273-.98562757-4.74949379-1.65447419-6.8125-4.5C618 44 618 44 618 42Z"/>
  <path fill="#859274" d="M346 504h2c1.5625 2.8125 1.5625 2.8125 3 6l-1 3h-2l-.4375-2.25c-.46437492-2.27027739-.98113569-4.50759479-1.5625-6.75Z"/>
  <path fill="#7F8F6F" d="m428 221-1 5c-1.8125.625-1.8125.625-4 1l-3-2c5.75-4 5.75-4 8-4Z"/>
  <path fill="#8D9A7C" d="M391 209c1.13643966 3.40931897.86747764 4.00335456-.4375 7.1875l-.87109375 2.16796875L389 220h-1c-.32613618-4.67461851.29417212-7.16674383 3-11Z"/>
  <path fill="#7A8F67" d="m22 98-1 5-5-1-1-3c2.49064888-.68707555 4.37886292-1 7-1Z"/>
  <path fill="#6F7F5C" d="M268 47c4.8 3.44615385 4.8 3.44615385 5.8125 6.25L274 55h-3v-2h-2l-1-6Z"/>
  <path fill="#839878" d="M531.5625 639.9375 534 640c-1.25178596 2.50357192-2.99981158 4.06433379-5 6-.38218767-1.65614657-.71395102-3.32457024-1-5 1-1 1-1 3.5625-1.0625Z"/>
  <path fill="#7F8F6D" d="m296 601 3 1-1 3-6 1c1-3 1-3 4-5Z"/>
  <path fill="#839173" d="M510 591v3l-6 3-1-3c4.75-3 4.75-3 7-3Z"/>
  <path fill="#8B9879" d="m544 554 1 2 3-1 3 5-9-3 2-1v-2Z"/>
  <path fill="#6D7F59" d="M329 382h2v5h-2l-1 3c-1-2-1-2-.0625-5.125L329 382Zm-5 9 2 1-2 1v-2Z"/>
  <path fill="#7D9170" d="m335 363 2 1v3l-7 1 5-5Z"/>
  <path fill="#859473" d="M240 243h2c1.61949011 2.57213134 2.04408751 3.67669159 1.625 6.75L243 252c-2.76223278-2.76223278-2.57856291-5.20706617-3-9Z"/>
  <path fill="#8B9A7B" d="m299 145-2 4-1.75-1.375c-2.0300333-1.46613516-3.98539843-2.57357784-6.25-3.625 3.93670488-1.31223496 6.12488144-.24296256 10 1Z"/>
  <path fill="#929E80" d="m398 64 1 3c-1.125 1.5-1.125 1.5-3 3-3.1875.1875-3.1875.1875-6 0v-2h6l2-4Z"/>
  <path fill="#7B8A6B" d="M76 64c-.625 1.875-.625 1.875-2 4-3.125 1.25-3.125 1.25-6 2 4.625-6 4.625-6 8-6Z"/>
  <path fill="#8A9979" d="M146 16v2l-2.25.875c-2.31739797.94802644-4.52917115 1.97345911-6.75 3.125l-2-2c1.4562545-.67119549 2.91507867-1.33681807 4.375-2l2.4609375-1.125C144 16 144 16 146 16Z"/>
  <path fill="#8D9A7F" d="M352 634c-3.28463659 2.18975773-6.20696275 2.99806563-10 4v-3c3.40562852-.77842938 6.50765756-1.09978121 10-1Z"/>
  <path fill="#8A967B" d="M395 612h3c-1.24976756 3.65316671-1.67098753 4.78065836-5 7-.125-2.375-.125-2.375 0-5l2-2Z"/>
  <path fill="#808D6E" d="M424 606h1v5l-5 2c1.07401108-2.91517292 1.77810176-4.77810176 4-7Z"/>
  <path fill="#8A997A" d="M444 604c3.53600465 1.91135386 5.78972846 3.62642766 8 7l-5-1-1-4h-2v-2Z"/>
  <path fill="#86947A" d="m353 575 2 3-3 5-4-2h2v-2h3v-4Z"/>
  <path fill="#7D8E6D" d="M343 496c1.5625 1.8125 1.5625 1.8125 3 4l-1 3-4-2 2-5Z"/>
  <path fill="#829571" d="m497 460 2 1v2l-2 1-1 3h-2l-1-5c1.875-1.0625 1.875-1.0625 4-2Z"/>
  <path fill="#829171" d="m505 372 2 1v2l3 1-2 4c-2.0625-2.3125-2.0625-2.3125-4-5l1-3Z"/>
  <path fill="#859377" d="M430 215c-1.98611612 1.98611612-3.44143249 2.91454712-6 4h-3v-2c5.625-3.125 5.625-3.125 9-2Z"/>
  <path fill="#7F8E70" d="M54 103c-2.76223278 2.76223278-5.20706617 2.57856291-9 3l-1-2c3.8503105-2.56687367 5.58569763-1.83288724 10-1Z"/>
  <path fill="#879775" d="M426 34c1.04449911 3.13349732.93423645 3.98968256 0 7-2.16874252-.50603992-3.99967627-.99983813-6-2l6-5Z"/>
  <path fill="#87947B" d="m236 19 8 5-2 2c-3-1.8125-3-1.8125-6-4v-3Z"/>
  <path fill="#758363" d="M236 23c3.41441762.78794253 6.72076495 1.76117787 10 3l1 2c-6.4-.49230769-6.4-.49230769-9.4375-3.0625L236 23Z"/>
  <path fill="#657847" d="m441 644 6 1v2l2 1-9-1 1-3Z"/>
  <path fill="#89977C" d="M373 626c-3.28463659 2.18975773-6.20696275 2.99806563-10 4l1-3c3.1964086-1.06546953 5.65747276-1.07427838 9-1Z"/>
  <path fill="#829374" d="m440 601-1 2c-3.375.125-3.375.125-7 0l-2-2c3.69541586-.95024979 6.30458414-.95024979 10 0Z"/>
  <path fill="#808E71" d="m288 498 4 1v5l-2 1c-1.4606285-2.64738916-2-3.89448334-2-7Z"/>
  <path fill="#7A9066" d="m337 484 3 1c-.75 1.9375-.75 1.9375-2 4-2.125.75-2.125.75-4 1 1.875-4.875 1.875-4.875 3-6Z"/>
  <path fill="#7F8E6F" d="M500 246c2 1.8125 2 1.8125 4 4v3l-4-1v-6Z"/>
  <path fill="#8C967D" d="m405 232 2 1-2 3c-1.9453125.29296875-1.9453125.29296875-4.125.1875L397 236c2.68856164-1.79237442 4.9533855-2.98446183 8-4Z"/>
  <path fill="#859270" d="m298 229 4 2v2l-8-1 4-3Z"/>
  <path fill="#849477" d="m246 182 3 1v5l-4 2 1-8Z"/>
  <path fill="#889574" d="M455 642c-1.04874998 2.62187494-1.64931313 3.79371361-4.125 5.25L449 648v-3c3.33333333-3 3.33333333-3 6-3Z"/>
  <path fill="#7C8C6B" d="m579 624 5 1 1 3-4 2-2-6Z"/>
  <path fill="#899878" d="m483 538 3 1v2l4 1-2 4-5-8Z"/>
  <path fill="#819073" d="m279 271 1 3h2c-1.75 4.875-1.75 4.875-4 6l1-9Z"/>
  <path fill="#9BA38B" d="m280 149 5 1-1 8h-1l-.9375-3.375c-.88576483-3.4195155-.88576483-3.4195155-2.0625-5.625Z"/>
  <path fill="#8B987A" d="M43 90c-2.22189824 2.22189824-4.08482708 2.92598892-7 4l-2-2c5.625-3.125 5.625-3.125 9-2Z"/>
  <path fill="#88967C" d="m373 63 9 1-2 2c-3.625-.375-3.625-.375-7-1v-2Z"/>
  <path fill="#889679" d="m281 60 7 6-2 1-3-1c-1.1875-3.0625-1.1875-3.0625-2-6Z"/>
  <path fill="#879678" d="M104 38c2.3125.1875 2.3125.1875 4 1-2.6855594 2.6855594-5.37621328 3.06049974-9 4 2.25-2.5625 2.25-2.5625 5-5Z"/>
</svg>
