<?xml version="1.0" encoding="utf-8"?>
<!DOCTYPE svg PUBLIC "-//W3C//DTD SVG 1.0//EN" "http://www.w3.org/TR/2001/REC-SVG-20010904/DTD/svg10.dtd">
<svg version="1.0" xmlns="http://www.w3.org/2000/svg" width="723px" height="652px" viewBox="0 0 723 652" preserveAspectRatio="xMidYMid meet">
 <g fill="none" stroke="#fffffe" stroke-width="1">
  <path d="M 0 326 l 0 -326 249.3 0.1 c 244.2 0.1 249 0.1 239.2 1.9 -15.8 2.9 -26.3 7.2 -42.1 17.5 -15.2 9.9 -36.7 30.3 -49.1 46.7 -1.8 2.5 -3.3 3.5 -4.3 3.1 -23.8 -9.8 -50.2 -9.7 -86.6 0.6 l -13.1 3.7 -8.9 -9.9 c -11.9 -13.3 -31.8 -31.6 -45 -41.6 -12 -8.9 -21.8 -14.2 -31 -16.5 -31.1 -7.9 -90.3 17.2 -130.9 55.5 -18 17 -26.6 23.4 -40.2 30.3 -9.5 4.7 -21.9 9 -29.6 10.1 -2.6 0.4 -4.6 1 -4.3 1.3 1.3 1.2 19.9 3.1 30.9 3.2 10.7 0 12.5 -0.3 19.5 -3 4.2 -1.6 11.1 -3.8 15.2 -4.8 7.1 -1.9 10 -2.4 28 -5.4 4.1 -0.6 15.2 -1.2 24.5 -1.2 16.5 -0.1 17.2 0 23.3 2.7 7.4 3.3 6 4.1 14.4 -9 2.9 -4.6 5.6 -8.3 5.9 -8.3 0.4 0 -0.7 6.3 -2.2 14 l -2.9 13.9 4.9 6.5 c 2.8 3.6 6.8 9.7 9.1 13.5 10.6 17.9 23.2 23.7 53.8 24.8 l 16.3 0.6 2.5 4.9 c 3.6 7 3.3 14.2 -1 33 -6.9 29.8 -8.2 46.4 -4.6 57.9 4.6 14.5 15.7 22.6 33.3 24.5 5.4 0.5 5.8 0.7 5.3 2.7 -2.2 7.5 -3.8 30.7 -4 54.2 -0.1 25.6 -0.1 26.2 2.8 37 2.7 10.4 6 19.9 9.6 27.3 1.6 3.2 1.5 3.9 -1.7 16.5 -6.6 26.2 -8.5 36.9 -8.5 46.2 0 13.4 4.9 31.6 14.3 53 l 4.2 9.6 -3.3 25.3 -3.2 25.3 2.2 4.4 c 3.9 7.7 3.9 7.7 8.7 -0.1 2.5 -3.8 4.9 -6.8 5.4 -6.4 0.5 0.3 4.5 5 8.9 10.4 4.4 5.4 8.4 10.2 9 10.5 0.5 0.3 2.1 -0.2 3.6 -1.1 2.5 -1.7 2.8 -1.7 7 0.6 l 4.4 2.3 4.4 -3.1 c 2.5 -1.8 5.3 -3.2 6.3 -3.2 1.2 0 3.1 -2 5.2 -5.5 1.9 -3.1 3.7 -5.8 4.1 -6 0.5 -0.3 4.9 5.2 9.9 12.1 7.3 10.2 8.9 13 7.9 14.1 -3.2 3.8 -7.4 5.4 -23.9 8.8 l -17.5 3.6 -7.7 -3.5 c -8.5 -3.9 -17.8 -6.6 -22.8 -6.6 -4.6 0 -11.2 4.2 -14.4 9.2 l -2.7 4.3 -7.1 0 c -5.4 0.1 -8.8 0.7 -13.5 2.7 -6.1 2.5 -6.4 2.5 -11.1 1.1 -4.6 -1.5 -5 -1.5 -9.4 0.7 -4.4 2.2 -4.8 2.3 -10 0.8 -4.9 -1.4 -5.8 -1.4 -8.6 0 -5.9 2.8 -14.1 13.9 -14.1 19.1 0 1.1 1.3 3.5 2.9 5.3 2.8 3.1 3.3 3.3 9.8 3.3 4.8 -0.1 8.2 -0.7 11.6 -2.3 l 4.9 -2.2 3.2 2.5 c 4.2 3.2 10.3 3.3 17.1 0.2 4.1 -1.9 5.7 -2.2 8.8 -1.4 2.9 0.7 4.9 0.5 8.3 -0.8 l 4.5 -1.7 3.4 2.7 c 6.4 4.8 14.3 7.8 20.7 7.8 4.8 -0.1 7.2 -0.8 14 -4.3 9.1 -4.7 38 -16.1 55.5 -22 12.9 -4.3 15.6 -5.8 17.9 -10.2 3.6 -6.9 2.8 -8.9 -13.4 -35.8 -11.3 -18.7 -16.8 -29.3 -20.6 -39.3 -3.2 -8.3 -7.2 -17 -17.2 -36.9 -4.6 -9.2 -7.9 -17 -7.4 -17.3 2.3 -1.4 17.3 4.6 47.9 19.4 18.3 8.9 33.9 16 34.6 15.8 0.6 -0.3 6.7 -7.9 13.6 -17 6.8 -9.1 12.9 -16.8 13.6 -17.1 0.7 -0.3 2.8 2.9 5.2 7.8 4.5 9.3 17 28.4 23.5 36.1 12.1 14.2 41.2 55.7 40.2 57.3 -0.8 1.3 -7.4 5 -35.4 19.7 l -22.3 11.7 -7.2 -6.9 c -11.5 -10.9 -17.7 -12.6 -25.2 -6.9 -5.3 4.1 -7.9 10.6 -8.3 20.9 -0.5 10.6 1.2 16.1 6.3 20.6 4 3.5 8.3 4.5 16.5 3.9 6.8 -0.5 10.2 -2.5 13.9 -8.1 l 2.4 -3.7 4.9 4.9 c 2.7 2.8 6.8 5.9 9.1 7 l 4.2 2.1 -237.7 0 -237.8 0 0 -326 z "/>
  <path d="M 486.5 649.9 c 2.2 -1.2 5.9 -3.9 8.2 -6 2.4 -2.2 4.6 -3.9 4.9 -3.9 0.4 0 2.6 1.8 4.9 3.9 8.9 8.2 21.1 7.8 26.4 -0.9 l 1.8 -3 2.9 3.1 c 6.2 6.5 14.4 8 22.3 3.9 3.8 -1.9 4.9 -2 8.7 -1.1 9.3 2.4 17.5 0.6 18.8 -4.1 1.8 -6.8 -0.4 -15.4 -4.6 -18.1 -1.2 -0.9 -4.5 -1.9 -7.1 -2.2 -2.9 -0.5 -6.2 -1.8 -8 -3.3 -9.1 -7.3 -23.8 -23.1 -32.9 -35.3 -3.4 -4.6 -6 -13 -9.3 -29.9 -4.4 -22.6 -14.6 -55.4 -24.6 -78.5 -2.1 -4.9 -3.9 -9.5 -3.9 -10 0 -0.6 1.4 -1.6 3 -2.2 l 3 -1.1 0 -33.5 c 0 -18.5 -0.4 -35.7 -1 -38.4 -0.5 -2.6 -1.9 -9 -3 -14.2 -1.1 -5.2 -1.8 -9.7 -1.4 -10 0.8 -0.7 9.5 8.9 13.5 14.8 1.6 2.5 3.3 6.1 3.8 8 0.5 2 1.4 15.8 2.1 30.6 1.5 35.9 2.4 39.3 17.6 61.8 4.2 6.2 10.1 14.3 13.2 18.1 l 5.6 6.8 -0.3 8.8 c -0.2 6.4 0.2 10.1 1.5 13.6 l 1.7 4.9 -6.7 10.9 c -3.6 5.9 -6.6 11.2 -6.6 11.6 0 0.4 3.8 2.2 8.5 4 4.7 1.8 8.7 3.6 8.9 3.9 0.1 0.3 -1 6 -2.5 12.6 -1.5 6.6 -2.4 12.3 -2 12.7 0.4 0.4 2.8 1.2 5.4 1.7 2.7 0.5 5 1.1 5.3 1.3 0.2 0.3 -0.2 1.8 -1 3.4 -0.9 1.5 -1.4 3 -1.2 3.2 0.2 0.1 3.8 0 8 -0.4 6.6 -0.6 7.7 -1 8.2 -2.8 0.3 -1.2 2.3 -3.1 4.5 -4.4 3.9 -2.2 4 -2.5 3.4 -6.5 -0.3 -2.3 -1 -10 -1.5 -17.2 -1.7 -23.6 -3 -37.2 -4 -40.4 -0.5 -1.8 -5.8 -12.5 -11.8 -23.9 -12.1 -23.1 -15.3 -29.7 -18.7 -39.2 -7.1 -19.5 -16.8 -74.7 -22 -125 -0.9 -8.5 -2.3 -20.5 -3.1 -26.7 -4.2 -32.2 -18.4 -61.4 -37.2 -76.3 l -5.2 -4.2 0 -18.8 c 0 -21.8 -1.3 -30.2 -8.5 -55.4 -2.5 -8.6 -4.5 -16.1 -4.5 -16.6 0 -0.6 3.5 -1 8.3 -1 21.6 0 37.4 -4.3 64.3 -17.4 27.8 -13.6 34.4 -18.7 45.2 -34.9 3.5 -5.4 6.6 -9.6 6.8 -9.4 0.3 0.2 -0.3 3.9 -1.1 8.3 -0.8 4.3 -1.5 8.5 -1.5 9.1 0 3.3 36.2 16.8 55.5 20.8 20.8 4.2 42.3 2.5 65.8 -5.2 4.2 -1.4 7.7 -2.9 7.7 -3.4 0 -0.4 -4.8 -3.3 -10.7 -6.5 -34.1 -18.2 -73.8 -43.5 -93.2 -59.2 -25.1 -20.2 -57.5 -34.9 -87.6 -39.6 -8.1 -1.2 1.6 -1.4 92.3 -1.5 l 101.2 -0.1 0 326 0 326 -120.2 0 -120.3 0 4 -2.1 z "/>
  <path d="M 307.6 406.1 c -1.9 -12.3 -1.8 -18.5 0.9 -28.6 1.8 -7.1 2.8 -14.6 3.5 -26 0.6 -8.8 1.1 -17.3 1.3 -18.8 l 0.2 -2.9 9.3 6.7 c 9.2 6.6 9.4 6.8 8.7 10.1 -0.7 3.9 0.6 6.8 4.6 10.6 1.6 1.5 2.9 3.1 2.9 3.5 0 0.4 -2.1 2.4 -4.7 4.3 l -4.5 3.4 0.5 6.3 0.5 6.3 -9.5 12.8 c -5.3 7 -10.3 13.5 -11.3 14.5 -1.6 1.8 -1.7 1.7 -2.4 -2.2 z "/>
  <path d="M 302 244.5 c -16.4 -2.4 -26.8 -6.5 -34.7 -13.8 -4.5 -4.1 -7.3 -8.9 -7.3 -12.4 0 -1.2 0.8 -0.8 2.9 1.7 1.6 1.9 3.1 3.3 3.4 3 0.2 -0.3 1.9 -7.5 3.7 -16 3.8 -17.8 4.5 -19.8 5.6 -15.5 1.9 8.4 7.7 27.3 9.4 31.1 3.8 8.8 12.2 11 41.5 10.7 23.5 -0.2 49.4 -2.6 54.5 -5.1 5 -2.4 8.7 -10.4 11.2 -23.9 1.1 -5.9 2.2 -11.9 2.4 -13.1 0.4 -2 0.7 -2.2 2 -1.1 3.4 2.8 12.4 17.7 13.4 22.4 0.7 2.8 1.5 6.2 1.9 7.7 l 0.6 2.8 12 -5.6 c 17.9 -8.3 17.7 -8.2 13.5 -3.9 -9.9 10.3 -38 23.3 -60.7 28 -20.5 4.3 -56.7 5.8 -75.3 3 z "/>
  <path d="M 268.3 162.6 c -2.5 -2.2 -2.8 -3.1 -2.7 -8 l 0.2 -5.5 -7.7 -0.3 -7.6 -0.3 3.5 -1.7 c 8.6 -4 33 -4.9 39.8 -1.4 5 2.6 3.8 3.6 -4.4 3.6 -7.4 0 -7.5 0 -6.7 2.3 0.4 1.2 0.7 3.7 0.7 5.6 -0.1 7.2 -9.3 10.7 -15.1 5.7 z "/>
  <path d="M 381.6 162.1 c -2.6 -2.7 -2.8 -3.5 -2.4 -8 l 0.5 -5.1 -8.1 0 c -7.3 0 -7.9 -0.1 -6.4 -1.6 1.9 -2 17.5 -4.4 27.8 -4.3 7.8 0 17.1 2.4 17.8 4.7 0.3 0.9 -1.6 1.2 -7 1.2 l -7.5 0 0.5 5.3 c 0.4 5 0.2 5.5 -2.8 8 -4.3 3.7 -8.8 3.6 -12.4 -0.2 z "/>
 </g>
 <g fill="none" stroke="#667e4e" stroke-width="1">
  <path d="M 471.3 649.9 c -2.3 -1.1 -6.4 -4.2 -9.1 -7 l -4.9 -4.9 -2.4 3.7 c -3.7 5.6 -7.1 7.6 -13.9 8.1 -8.2 0.6 -12.5 -0.4 -16.5 -3.9 -5.1 -4.5 -6.8 -10 -6.3 -20.6 0.4 -10.3 3 -16.8 8.3 -20.9 7.5 -5.7 13.7 -4 25.2 6.9 l 7.2 6.9 22.3 -11.7 c 28 -14.7 34.6 -18.4 35.4 -19.7 1 -1.6 -28.1 -43.1 -40.2 -57.3 -6.5 -7.7 -19 -26.8 -23.5 -36.1 -2.4 -4.9 -4.5 -8.1 -5.2 -7.8 -0.7 0.3 -6.8 8 -13.6 17.1 -6.9 9.1 -13 16.7 -13.6 17 -0.7 0.2 -16.3 -6.9 -34.6 -15.8 -30.6 -14.8 -45.6 -20.8 -47.9 -19.4 -0.5 0.3 2.8 8.1 7.4 17.3 10 19.9 14 28.6 17.2 36.9 3.8 10 9.3 20.6 20.6 39.3 16.2 26.9 17 28.9 13.4 35.8 -2.3 4.4 -5 5.9 -17.9 10.2 -17.5 5.9 -46.4 17.3 -55.5 22 -6.8 3.5 -9.2 4.2 -14 4.3 -6.4 0 -14.3 -3 -20.7 -7.8 l -3.4 -2.7 -4.5 1.7 c -3.4 1.3 -5.4 1.5 -8.3 0.8 -3.1 -0.8 -4.7 -0.5 -8.8 1.4 -6.8 3.1 -12.9 3 -17.1 -0.2 l -3.2 -2.5 -4.9 2.2 c -3.4 1.6 -6.8 2.2 -11.6 2.3 -6.5 0 -7 -0.2 -9.8 -3.3 -1.6 -1.8 -2.9 -4.2 -2.9 -5.3 0 -5.2 8.2 -16.3 14.1 -19.1 2.8 -1.4 3.7 -1.4 8.6 0 5.2 1.5 5.6 1.4 10 -0.8 4.4 -2.2 4.8 -2.2 9.4 -0.7 4.7 1.4 5 1.4 11.1 -1.1 4.7 -2 8.1 -2.6 13.5 -2.7 l 7.1 0 2.7 -4.3 c 3.2 -5 9.8 -9.2 14.4 -9.2 5 0 14.3 2.7 22.8 6.6 l 7.7 3.5 17.5 -3.6 c 16.5 -3.4 20.7 -5 23.9 -8.8 1 -1.1 -0.6 -3.9 -7.9 -14.1 -5 -6.9 -9.4 -12.4 -9.9 -12.1 -0.4 0.2 -2.2 2.9 -4.1 6 -2.1 3.5 -4 5.5 -5.2 5.5 -1 0 -3.8 1.4 -6.3 3.2 l -4.4 3.1 -4.4 -2.3 c -4.2 -2.3 -4.5 -2.3 -7 -0.6 -1.5 0.9 -3.1 1.4 -3.6 1.1 -0.6 -0.3 -4.6 -5.1 -9 -10.5 -4.4 -5.4 -8.4 -10.1 -8.9 -10.4 -0.5 -0.4 -2.9 2.6 -5.4 6.4 -4.8 7.8 -4.8 7.8 -8.7 0.1 l -2.2 -4.4 3.2 -25.3 3.3 -25.3 -4.2 -9.6 c -9.4 -21.4 -14.3 -39.6 -14.3 -53 0 -9.3 1.9 -20 8.5 -46.2 3.2 -12.6 3.3 -13.3 1.7 -16.5 -3.6 -7.4 -6.9 -16.9 -9.6 -27.3 -2.9 -10.8 -2.9 -11.4 -2.8 -37 0.2 -23.5 1.8 -46.7 4 -54.2 0.5 -2 0.1 -2.2 -5.3 -2.7 -17.6 -1.9 -28.7 -10 -33.3 -24.5 -3.6 -11.5 -2.3 -28.1 4.6 -57.9 4.3 -18.8 4.6 -26 1 -33 l -2.5 -4.9 -16.3 -0.6 c -30.6 -1.1 -43.2 -6.9 -53.8 -24.8 -2.3 -3.8 -6.3 -9.9 -9.1 -13.5 l -4.9 -6.5 2.9 -13.9 c 1.5 -7.7 2.6 -14 2.2 -14 -0.3 0 -3 3.7 -5.9 8.2 -8.4 13.2 -7 12.4 -14.4 9.1 -6.1 -2.7 -6.8 -2.8 -23.3 -2.7 -9.3 0 -20.4 0.6 -24.5 1.2 -18 3 -20.9 3.5 -28 5.4 -4.1 1 -11 3.2 -15.2 4.8 -7 2.7 -8.8 3 -19.5 3 -11 -0.1 -29.6 -2 -30.9 -3.2 -0.3 -0.3 1.7 -0.9 4.3 -1.3 7.7 -1.1 20.1 -5.4 29.6 -10.1 13.6 -6.9 22.2 -13.3 40.2 -30.3 40.6 -38.3 99.8 -63.4 130.9 -55.5 9.2 2.3 19 7.6 31 16.5 13.2 10 33.1 28.3 45 41.6 l 8.9 9.9 13.1 -3.7 c 36.4 -10.3 62.8 -10.4 86.6 -0.6 1 0.4 2.5 -0.6 4.3 -3.1 17.1 -22.6 42.8 -44.8 64.2 -55.4 38.9 -19.4 92.5 -12 140.1 19.4 5.5 3.7 12.5 8.6 15.5 11 19.4 15.7 59.1 41 93.2 59.2 5.9 3.2 10.7 6.1 10.7 6.5 0 0.5 -3.5 2 -7.7 3.4 -23.5 7.7 -45 9.4 -65.8 5.2 -19.3 -4 -55.5 -17.5 -55.5 -20.8 0 -0.6 0.7 -4.8 1.5 -9.1 0.8 -4.4 1.4 -8.1 1.1 -8.3 -0.2 -0.2 -3.3 4 -6.8 9.4 -10.8 16.2 -17.4 21.3 -45.2 34.9 -26.9 13.1 -42.7 17.4 -64.3 17.4 -4.8 0 -8.3 0.4 -8.3 1 0 0.5 2 8 4.5 16.6 7.2 25.2 8.5 33.6 8.5 55.4 l 0 18.8 5.2 4.2 c 18.8 14.9 33 44.1 37.2 76.3 0.8 6.2 2.2 18.2 3.1 26.7 5.2 50.3 14.9 105.5 22 125 3.4 9.5 6.6 16.1 18.7 39.2 6 11.4 11.3 22.1 11.8 23.9 1 3.2 2.3 16.8 4 40.4 0.5 7.2 1.2 14.9 1.5 17.2 0.6 4 0.5 4.3 -3.4 6.5 -2.2 1.3 -4.2 3.2 -4.5 4.4 -0.5 1.8 -1.6 2.2 -8.2 2.8 -4.2 0.4 -7.8 0.5 -8 0.4 -0.2 -0.2 0.3 -1.7 1.2 -3.2 0.8 -1.6 1.2 -3.1 1 -3.4 -0.3 -0.2 -2.6 -0.8 -5.3 -1.3 -2.6 -0.5 -5 -1.3 -5.4 -1.7 -0.4 -0.4 0.5 -6.1 2 -12.7 1.5 -6.6 2.6 -12.3 2.5 -12.6 -0.2 -0.3 -4.2 -2.1 -8.9 -3.9 -4.7 -1.8 -8.5 -3.6 -8.5 -4 0 -0.4 3 -5.7 6.6 -11.6 l 6.7 -10.9 -1.7 -4.9 c -1.3 -3.5 -1.7 -7.2 -1.5 -13.6 l 0.3 -8.8 -5.6 -6.8 c -3.1 -3.8 -9 -11.9 -13.2 -18.1 -15.2 -22.5 -16.1 -25.9 -17.6 -61.8 -0.7 -14.8 -1.6 -28.6 -2.1 -30.6 -0.5 -1.9 -2.2 -5.5 -3.8 -8 -4 -5.9 -12.7 -15.5 -13.5 -14.8 -0.4 0.3 0.3 4.8 1.4 10 1.1 5.2 2.5 11.6 3 14.2 0.6 2.7 1 19.9 1 38.4 l 0 33.5 -3 1.1 c -1.6 0.6 -3 1.6 -3 2.2 0 0.5 1.8 5.1 3.9 10 10 23.1 20.2 55.9 24.6 78.5 3.3 16.9 5.9 25.3 9.3 29.9 9.1 12.2 23.8 28 32.9 35.3 1.8 1.5 5.1 2.8 8 3.3 2.6 0.3 5.9 1.3 7.1 2.2 4.2 2.7 6.4 11.3 4.6 18.1 -1.3 4.7 -9.5 6.5 -18.8 4.1 -3.8 -0.9 -4.9 -0.8 -8.7 1.1 -7.9 4.1 -16.1 2.6 -22.3 -3.9 l -2.9 -3.1 -1.8 3 c -5.3 8.7 -17.5 9.1 -26.4 0.9 -2.3 -2.1 -4.5 -3.9 -4.9 -3.9 -0.3 0 -2.5 1.7 -4.9 3.9 -8.8 8.1 -15.6 9.9 -23.4 6 z  m -150 -256.1 l 9.5 -12.8 -0.5 -6.3 -0.5 -6.3 4.5 -3.4 c 2.6 -1.9 4.7 -3.9 4.7 -4.3 0 -0.4 -1.3 -2 -2.9 -3.5 -4 -3.8 -5.3 -6.7 -4.6 -10.6 0.7 -3.3 0.5 -3.5 -8.7 -10.1 l -9.3 -6.7 -0.2 2.9 c -0.2 1.5 -0.7 10 -1.3 18.8 -0.7 11.4 -1.7 18.9 -3.5 26 -2.7 10.1 -2.8 16.3 -0.9 28.6 0.7 3.9 0.8 4 2.4 2.2 1 -1 6 -7.5 11.3 -14.5 z  m 35.7 -149.2 c 15.4 -1.8 25.5 -3.8 37.2 -7.7 17.2 -5.6 36.7 -16 43.8 -23.4 4.2 -4.3 4.4 -4.4 -13.5 3.9 l -12 5.6 -0.6 -2.8 c -0.4 -1.5 -1.2 -4.9 -1.9 -7.7 -1 -4.7 -10 -19.6 -13.4 -22.4 -1.3 -1.1 -1.6 -0.9 -2 1.1 -0.2 1.2 -1.3 7.2 -2.4 13.1 -2.5 13.5 -6.2 21.5 -11.2 23.9 -5.1 2.5 -31 4.9 -54.5 5.1 -29.3 0.3 -37.7 -1.9 -41.5 -10.7 -1.7 -3.8 -7.5 -22.7 -9.4 -31.1 -1.1 -4.3 -1.8 -2.3 -5.6 15.5 -1.8 8.5 -3.5 15.7 -3.7 16 -0.3 0.3 -1.8 -1.1 -3.4 -3 -2.1 -2.5 -2.9 -2.9 -2.9 -1.7 0 8.4 12.4 18.8 27.5 23.3 15 4.3 45.7 5.7 69.5 3 z  m -76.4 -81.9 c 2.9 -2.5 3.7 -6.9 2.1 -11.4 -0.8 -2.3 -0.7 -2.3 6.7 -2.3 8.2 0 9.4 -1 4.4 -3.6 -6.8 -3.5 -31.2 -2.6 -39.8 1.4 l -3.5 1.7 7.6 0.3 7.7 0.3 -0.2 5.5 c -0.1 4.9 0.2 5.8 2.7 8 3.7 3.1 8.7 3.2 12.3 0.1 z  m 113.4 -0.4 c 3 -2.5 3.2 -3 2.8 -8 l -0.5 -5.3 7.5 0 c 5.4 0 7.3 -0.3 7 -1.2 -0.7 -2.3 -10 -4.7 -17.8 -4.7 -10.3 -0.1 -25.9 2.3 -27.8 4.3 -1.5 1.5 -0.9 1.6 6.4 1.6 l 8.1 0 -0.5 5.1 c -0.4 4.5 -0.2 5.3 2.4 8 3.6 3.8 8.1 3.9 12.4 0.2 z "/>
 </g>
</svg>